<svg xmlns="http://www.w3.org/2000/svg" width="430" height="430" fill="none" viewBox="0 0 430 430"><g stroke-linecap="round" stroke-linejoin="round" stroke-miterlimit="10" stroke-width="12"><path stroke="#01b0f1" d="m270.7 187.6 8 6.5 32.4 26.5h37.5"/><path stroke="#01b0f1" d="M348.6 191.5h-25.4l-63.4-48.3-31 33.9-33.8 37"/><path stroke="#fff" d="M107.9 322.1V375h240.7V55H107.9v228.8"/><path stroke="#01b0f1" d="M278.7 194.1 238.9 243m-10.1-65.9h-35.9L164 209.8c-8.6 9.7-23.4 10.8-33.3 2.3l-2.8-2.4 57-66.5h75"/><path stroke="#fff" d="m237.3 241.9 38.5 29.9c8.6 6.7 13.6 16.9 13.6 27.8v48.7l19 26.9h-53.3v-73.9l-48.3-27.6"/><path stroke="#fff" d="m238.9 243-72.6 69.4c-6.5 6.3-15.2 9.7-24.3 9.7H50c0-21.2 17.2-38.4 38.4-38.4h56.1L195 214zm62-97.6-16.1-11.3c-7.4-5.2-9.3-15.5-4.1-22.9l14.5-20.7c5.2-7.4 15.5-9.3 22.9-4.1l2.7 1.9c7.4 5.2 9.3 15.5 4.1 22.9zm-11.5 202.9h-34.3M93.5 283.8v38.3"/></g></svg>